<svg version="1.1" viewBox="0.0 0.0 432.0 432.0" fill="none" stroke="none" stroke-linecap="square" stroke-miterlimit="10" xmlns:xlink="http://www.w3.org/1999/xlink" xmlns="http://www.w3.org/2000/svg"><clipPath id="p.0"><path d="m0 0l432.0 0l0 432.0l-432.0 0l0 -432.0z" clip-rule="nonzero"/></clipPath><g clip-path="url(#p.0)"><path fill="#000000" fill-opacity="0.0" d="m0 0l432.0 0l0 432.0l-432.0 0z" fill-rule="evenodd"/><path fill="#e65768" d="m4.8 36.80064l0 0c0 -17.673466 14.327174 -32.00064 32.00064 -32.00064l127.99872 0l0 0c8.487091 0 16.626587 3.3714857 22.627869 9.37277c6.0012817 6.0012846 9.372772 14.140773 9.372772 22.627869l0 127.99872c0 17.673462 -14.327179 32.00064 -32.00064 32.00064l-127.99872 0c-17.673466 0 -32.00064 -14.327179 -32.00064 -32.00064z" fill-rule="evenodd"/><path stroke="#000000" stroke-width="8.0" stroke-linejoin="round" stroke-linecap="butt" d="m4.8 36.80064l0 0c0 -17.673466 14.327174 -32.00064 32.00064 -32.00064l127.99872 0l0 0c8.487091 0 16.626587 3.3714857 22.627869 9.37277c6.0012817 6.0012846 9.372772 14.140773 9.372772 22.627869l0 127.99872c0 17.673462 -14.327179 32.00064 -32.00064 32.00064l-127.99872 0c-17.673466 0 -32.00064 -14.327179 -32.00064 -32.00064z" fill-rule="evenodd"/><path fill="#7090ff" d="m235.2 36.80064l0 0c0 -17.673466 14.327179 -32.00064 32.000656 -32.00064l127.99872 0l0 0c8.487091 0 16.626587 3.3714857 22.627869 9.37277c6.0012817 6.0012846 9.372772 14.140773 9.372772 22.627869l0 127.99872c0 17.673462 -14.327179 32.00064 -32.00064 32.00064l-127.99872 0c-17.673477 0 -32.000656 -14.327179 -32.000656 -32.00064z" fill-rule="evenodd"/><path stroke="#000000" stroke-width="8.0" stroke-linejoin="round" stroke-linecap="butt" d="m235.2 36.80064l0 0c0 -17.673466 14.327179 -32.00064 32.000656 -32.00064l127.99872 0l0 0c8.487091 0 16.626587 3.3714857 22.627869 9.37277c6.0012817 6.0012846 9.372772 14.140773 9.372772 22.627869l0 127.99872c0 17.673462 -14.327179 32.00064 -32.00064 32.00064l-127.99872 0c-17.673477 0 -32.000656 -14.327179 -32.000656 -32.00064z" fill-rule="evenodd"/><path fill="#a67cff" d="m4.8 267.20065l0 0c0 -17.673477 14.327174 -32.000656 32.00064 -32.000656l127.99872 0l0 0c8.487091 0 16.626587 3.3714905 22.627869 9.372772c6.0012817 6.0012817 9.372772 14.140762 9.372772 22.627884l0 127.99872c0 17.673462 -14.327179 32.00064 -32.00064 32.00064l-127.99872 0c-17.673466 0 -32.00064 -14.327179 -32.00064 -32.00064z" fill-rule="evenodd"/><path stroke="#000000" stroke-width="8.0" stroke-linejoin="round" stroke-linecap="butt" d="m4.8 267.20065l0 0c0 -17.673477 14.327174 -32.000656 32.00064 -32.000656l127.99872 0l0 0c8.487091 0 16.626587 3.3714905 22.627869 9.372772c6.0012817 6.0012817 9.372772 14.140762 9.372772 22.627884l0 127.99872c0 17.673462 -14.327179 32.00064 -32.00064 32.00064l-127.99872 0c-17.673466 0 -32.00064 -14.327179 -32.00064 -32.00064z" fill-rule="evenodd"/><path fill="#84e296" d="m235.2 267.20065l0 0c0 -17.673477 14.327179 -32.000656 32.000656 -32.000656l127.99872 0l0 0c8.487091 0 16.626587 3.3714905 22.627869 9.372772c6.0012817 6.0012817 9.372772 14.140762 9.372772 22.627884l0 127.99872c0 17.673462 -14.327179 32.00064 -32.00064 32.00064l-127.99872 0c-17.673477 0 -32.000656 -14.327179 -32.000656 -32.00064z" fill-rule="evenodd"/><path stroke="#000000" stroke-width="8.0" stroke-linejoin="round" stroke-linecap="butt" d="m235.2 267.20065l0 0c0 -17.673477 14.327179 -32.000656 32.000656 -32.000656l127.99872 0l0 0c8.487091 0 16.626587 3.3714905 22.627869 9.372772c6.0012817 6.0012817 9.372772 14.140762 9.372772 22.627884l0 127.99872c0 17.673462 -14.327179 32.00064 -32.00064 32.00064l-127.99872 0c-17.673477 0 -32.000656 -14.327179 -32.000656 -32.00064z" fill-rule="evenodd"/></g></svg>