<svg version="1.1" xmlns="http://www.w3.org/2000/svg" xmlns:xlink="http://www.w3.org/1999/xlink" width="173.16093" height="161.03374" viewBox="0,0,173.16093,161.03374"><g transform="translate(-153.41953,-99.48313)"><g data-paper-data="{&quot;isPaintingLayer&quot;:true}" fill-rule="nonzero" stroke-linejoin="miter" stroke-miterlimit="10" stroke-dasharray="" stroke-dashoffset="0" style="mix-blend-mode: normal"><path d="M157.41953,213.78291v-110.29978h165.16093v110.29978z" fill="#ffffff" stroke="#ffffff" stroke-width="8" stroke-linecap="butt"/><path d="M253.3287,184.88195c0,7.9676 -6.71232,14.42663 -14.99238,14.42663c-8.28006,0 -14.99237,-6.45902 -14.99237,-14.42663c0,-7.9676 6.71231,-14.42663 14.99237,-14.42663c8.28006,0 14.99238,6.45902 14.99238,14.42663z" fill="#a87dff" stroke="none" stroke-width="0" stroke-linecap="butt"/><path d="M249.09171,122.89006l0.10476,63.69262" fill="none" stroke="#a87dff" stroke-width="8" stroke-linecap="round"/><path d="M293.12869,244.96715c0,6.37873 -23.65727,11.54972 -52.83996,11.54972c-29.18269,0 -52.83994,-5.17099 -52.83994,-11.54972c0,-6.37873 23.65725,-11.54971 52.83994,-11.54971c29.18269,0 52.83996,5.17098 52.83996,11.54971z" fill="#a87dff" stroke="#ffffff" stroke-width="8" stroke-linecap="butt"/><path d="M230.18389,243.786v-36.38161h19.05704v36.38161z" fill="#ffffff" stroke="#ffffff" stroke-width="1" stroke-linecap="butt"/></g></g></svg>